<?xml version="1.0" encoding="UTF-8"?>
<!-- Generated by Pixelmator Pro 3.4.3 -->
<svg width="499" height="499" viewBox="0 0 499 499" xmlns="http://www.w3.org/2000/svg">
    <path id="path1" fill="#000000" fill-rule="evenodd" stroke="none" d="M 249.724609 498.753906 C 283.741699 498.753906 315.764526 492.243561 345.793945 479.222656 C 375.823364 466.201782 402.312378 448.216919 425.261719 425.267578 C 448.21106 402.318237 466.195923 375.829224 479.216797 345.799805 C 492.237671 315.770386 498.748047 283.747559 498.748047 249.730469 C 498.748047 215.713379 492.237671 183.690552 479.216797 153.661133 C 466.195923 123.631714 448.21106 97.1427 425.261719 74.193359 C 402.312378 51.244019 375.782715 33.259155 345.671875 20.238281 C 315.561035 7.217407 283.497559 0.707031 249.480469 0.707031 C 215.463379 0.707031 183.440552 7.217407 153.411133 20.238281 C 123.381714 33.259155 96.93335 51.244019 74.06543 74.193359 C 51.19751 97.1427 33.253296 123.631714 20.232422 153.661133 C 7.211548 183.690552 0.701172 215.713379 0.701172 249.730469 C 0.701172 283.747559 7.211548 315.770386 20.232422 345.799805 C 33.253296 375.829224 51.238159 402.318237 74.1875 425.267578 C 97.136841 448.216919 123.625854 466.201782 153.655273 479.222656 C 183.684692 492.243561 215.70752 498.753906 249.724609 498.753906 Z M 192.107422 374.486328 C 188.201172 370.580078 186.248047 365.982117 186.248047 360.692383 C 186.248047 355.402649 188.119751 350.967468 191.863281 347.386719 L 295.378906 249.974609 L 191.863281 152.806641 C 187.957031 149.225891 186.085327 144.75 186.248047 139.378906 C 186.410767 134.007813 188.445313 129.450562 192.351563 125.707031 C 195.932251 122.126282 200.286133 120.458008 205.413086 120.702148 C 210.540039 120.946289 215.056641 122.940063 218.962891 126.683594 L 323.699219 225.072266 C 328.582031 229.466797 331.796509 234.71582 333.342773 240.819336 C 334.889038 246.922852 334.889038 253.026367 333.342773 259.129883 C 331.796509 265.233398 328.582031 270.482422 323.699219 274.876953 L 218.962891 373.509766 C 215.382202 376.927734 210.824951 378.718079 205.291016 378.880859 C 199.75708 379.04364 195.362671 377.578796 192.107422 374.486328 Z"/>
</svg>
