<?xml version="1.0" standalone="no"?>
<!DOCTYPE svg PUBLIC "-//W3C//DTD SVG 20010904//EN"
 "http://www.w3.org/TR/2001/REC-SVG-20010904/DTD/svg10.dtd">
<svg version="1.0" xmlns="http://www.w3.org/2000/svg"
 width="512.000000pt" height="512.000000pt" viewBox="0 0 512.000000 512.000000"
 preserveAspectRatio="xMidYMid meet">
<metadata>
Created by potrace 1.14, written by Peter Selinger 2001-2017
</metadata>
<g transform="translate(0.000000,512.000000) scale(0.100000,-0.100000)"
fill="#000000" stroke="none">
<path d="M5 5108 c-3 -7 -4 -1158 -3 -2558 l3 -2545 2555 0 2555 0 0 2555 0
2555 -2553 3 c-2037 2 -2554 0 -2557 -10z m2858 -783 c181 -38 292 -153 332
-342 25 -116 14 -609 -13 -634 -4 -4 -108 -9 -231 -13 l-223 -6 6 28 c3 15 9
90 12 167 9 207 -13 326 -69 357 -14 8 -58 13 -122 12 -152 -1 -182 -24 -205
-155 -8 -45 -10 -399 -8 -1169 3 -1099 3 -1105 24 -1150 12 -25 30 -53 41 -63
41 -36 217 -47 274 -16 12 6 30 32 42 57 20 42 22 65 22 227 0 99 -4 221 -8
271 l-8 91 227 6 c125 4 229 5 230 4 12 -12 25 -321 22 -502 -5 -203 -7 -226
-31 -300 -56 -170 -159 -265 -326 -301 -93 -19 -500 -19 -595 1 -206 44 -336
176 -381 390 -22 105 -22 2545 0 2650 45 212 174 346 376 390 91 19 520 20
612 0z"/>
</g>
</svg>
